<svg version="1.1" viewBox="0.0 0.0 1493.0446194225722 461.12335958005247" fill="none" stroke="none" stroke-linecap="square" stroke-miterlimit="10" xmlns:xlink="http://www.w3.org/1999/xlink" xmlns="http://www.w3.org/2000/svg"><clipPath id="p.0"><path d="m0 0l1493.0447 0l0 461.12335l-1493.0447 0l0 -461.12335z" clip-rule="nonzero"/></clipPath><g clip-path="url(#p.0)"><path fill="#000000" fill-opacity="0.0" d="m0 0l1493.0447 0l0 461.12335l-1493.0447 0z" fill-rule="evenodd"/><g filter="url(#shadowFilter-p.1)"><use xlink:href="#p.1" transform="matrix(1.0 0.0 0.0 1.0 1.0 0.0)"/></g><defs><filter id="shadowFilter-p.1" filterUnits="userSpaceOnUse"><feGaussianBlur in="SourceAlpha" stdDeviation="18.5" result="blur"/><feComponentTransfer in="blur" color-interpolation-filters="sRGB"><feFuncR type="linear" slope="0" intercept="1.0"/><feFuncG type="linear" slope="0" intercept="1.0"/><feFuncB type="linear" slope="0" intercept="0.0"/><feFuncA type="linear" slope="1.0" intercept="0"/></feComponentTransfer></filter></defs><g id="p.1"><path fill="#ffff00" fill-opacity="0.5038" d="m99.12676 349.39523l0 0c0 -26.979889 21.724022 -48.85138 48.52195 -48.85138l0 0c12.86882 0 25.210571 5.14682 34.31021 14.308228c9.099625 9.161407 14.211746 21.586945 14.211746 34.54315l0 0c0 26.979858 -21.724014 48.85138 -48.521957 48.85138l0 0c-26.797928 0 -48.52195 -21.871521 -48.52195 -48.85138z" fill-rule="evenodd"/></g><path fill="#ffff00" fill-opacity="0.85" d="m99.12657 301.76535l0 0c0 -48.255524 21.724014 -87.374344 48.521957 -87.374344l0 0c12.86882 0 25.210571 9.20549 34.310196 25.591354c9.099625 16.385864 14.211746 38.609863 14.211746 61.78299l0 0c0 48.255493 -21.724014 87.37433 -48.521942 87.37433l0 0c-26.797943 0 -48.521957 -39.118835 -48.521957 -87.37433z" fill-rule="evenodd"/><path fill="#faff94" d="m106.969635 279.18713l0 0c0 -48.255524 18.211823 -87.374344 40.67723 -87.374344l0 0c10.788284 0 21.13469 9.20549 28.763153 25.591354c7.6284637 16.385864 11.914093 38.609863 11.914093 61.78299l0 0c0 48.255493 -18.211823 87.37433 -40.677246 87.37433l0 0c-22.465408 0 -40.67723 -39.118835 -40.67723 -87.37433z" fill-rule="evenodd"/><path fill="#783f04" d="m109.346275 217.86859l76.6045 0l0 0c10.035385 0 18.170685 19.224045 18.170685 42.93811c0 23.71405 -8.1353 42.93808 -18.170685 42.93808l-76.6045 0l0 0c-10.035393 0 -18.170685 -19.22403 -18.170685 -42.93808c0 -23.714066 8.135292 -42.93811 18.170685 -42.93811z" fill-rule="evenodd"/><path fill="#000000" fill-opacity="0.0" d="m107.45028 45.006023l0 0c8.383705 -6.5900574 18.0467 -5.1223946 25.699532 3.903366c7.652832 9.025761 12.26413 24.39323 12.26413 40.871044l-27.118164 0z" fill-rule="evenodd"/><path fill="#000000" fill-opacity="0.0" d="m107.45028 45.006023l0 0c8.383705 -6.5900574 18.0467 -5.1223946 25.699532 3.903366c7.652832 9.025761 12.26413 24.39323 12.26413 40.871044" fill-rule="evenodd"/><path stroke="#434343" stroke-width="3.0" stroke-linejoin="round" stroke-linecap="butt" d="m107.45028 45.006023l0 0c8.383705 -6.5900574 18.0467 -5.1223946 25.699532 3.903366c7.652832 9.025761 12.26413 24.39323 12.26413 40.871044" fill-rule="evenodd"/><path fill="#440000" d="m100.47288 176.65051l94.35117 0l0 0c12.36026 0 22.380234 19.224045 22.380234 42.938095c0 23.71405 -10.019974 42.938095 -22.380234 42.938095l-94.35117 0l0 0c-12.36026 0 -22.380226 -19.224045 -22.380226 -42.938095c0 -23.71405 10.019966 -42.938095 22.380226 -42.938095z" fill-rule="evenodd"/><path fill="#434343" d="m53.88638 243.88054l0 0c29.760105 -76.63263 71.91771 -131.17711 94.16167 -121.82851l0 0c10.681915 4.489357 15.24913 23.413696 12.696915 52.609894c-2.5522308 29.196182 -12.014816 66.27261 -26.306122 103.07291l0 0c-29.760109 76.63263 -71.917725 131.17712 -94.16167 121.82852l0 0c-10.681919 -4.48938 -15.249138 -23.413727 -12.696917 -52.609894c2.5522213 -29.196198 12.014814 -66.272644 26.30612 -103.07292z" fill-rule="evenodd"/><path fill="#434343" d="m241.40977 247.58635l0 0c-29.760101 -76.632645 -71.91771 -131.17712 -94.16167 -121.828514l0 0c-10.681915 4.489357 -15.24913 23.413704 -12.696915 52.609886c2.5522308 29.196198 12.014816 66.27263 26.306122 103.07292l0 0c29.760101 76.63263 71.917725 131.1771 94.16167 121.82849l0 0c10.681915 -4.4893494 15.2491455 -23.413696 12.69693 -52.609894c-2.552246 -29.196167 -12.014832 -66.27261 -26.306137 -103.07289z" fill-rule="evenodd"/><path fill="#434343" d="m99.12676 131.50711l0 0c0 -26.979866 21.724022 -48.85138 48.52195 -48.85138l0 0c12.86882 0 25.210571 5.1468277 34.31021 14.308243c9.099625 9.161407 14.211746 21.586945 14.211746 34.543137l0 0c0 26.979874 -21.724014 48.85138 -48.521957 48.85138l0 0c-26.797928 0 -48.52195 -21.871506 -48.52195 -48.85138z" fill-rule="evenodd"/><path fill="#000000" fill-opacity="0.0" d="m187.84715 45.006023l0 0c-8.3836975 -6.5900574 -18.046692 -5.1223946 -25.699524 3.903366c-7.652832 9.025761 -12.26413 24.39323 -12.26413 40.871044l27.118164 0z" fill-rule="evenodd"/><path fill="#000000" fill-opacity="0.0" d="m187.84715 45.006023l0 0c-8.3836975 -6.5900574 -18.046692 -5.1223946 -25.699524 3.903366c-7.652832 9.025761 -12.26413 24.39323 -12.26413 40.871044" fill-rule="evenodd"/><path stroke="#434343" stroke-width="3.0" stroke-linejoin="round" stroke-linecap="butt" d="m187.84715 45.006023l0 0c-8.3836975 -6.5900574 -18.046692 -5.1223946 -25.699524 3.903366c-7.652832 9.025761 -12.26413 24.39323 -12.26413 40.871044" fill-rule="evenodd"/><path fill="#000000" fill-opacity="0.0" d="m295.29398 23.774279l1165.1339 0l0 413.5748l-1165.1339 0z" fill-rule="evenodd"/><path fill="#000000" d="m380.34085 314.3743l0 -185.18752l-69.171875 0l0 -24.78125l166.42188 0l0 24.78125l-69.453125 0l0 185.18752l-27.796875 0zm112.86401 -76.04689q0 -42.265625 23.49997 -62.59375q19.609375 -16.90625 47.828125 -16.90625q31.375 0 51.28125 20.5625q19.90625 20.546875 19.90625 56.78125q0 29.35939 -8.8125 46.187515q-8.796875 16.828125 -25.640625 26.140625q-16.828125 9.3125 -36.734375 9.3125q-31.9375 0 -51.640625 -20.484375q-19.68747 -20.484375 -19.68747 -59.000015zm26.49997 0q0 29.218765 12.75 43.750015q12.75 14.53125 32.078125 14.53125q19.203125 0 31.9375 -14.609375q12.75 -14.609375 12.75 -44.531265q0 -28.21875 -12.828125 -42.75q-12.8125 -14.546875 -31.859375 -14.546875q-19.328125 0 -32.078125 14.46875q-12.75 14.46875 -12.75 43.6875zm145.94763 76.04689l0 -152.10939l23.203125 0l0 23.0625q8.875 -16.1875 16.390625 -21.34375q7.53125 -5.15625 16.546875 -5.15625q13.046875 0 26.5 8.3125l-8.875 23.921875q-9.453125 -5.59375 -18.90625 -5.59375q-8.453125 0 -15.1875 5.09375q-6.734375 5.078125 -9.59375 14.09375q-4.296875 13.75 -4.296875 30.078125l0 79.64064l-25.78125 0zm197.22742 -55.71875l25.34375 3.296875q-4.140625 26.21875 -21.265625 41.046875q-17.109375 14.8125 -42.03125 14.8125q-31.234375 0 -50.21875 -20.40625q-18.96875 -20.40625 -18.96875 -58.51564q0 -24.625 8.15625 -43.09375q8.171875 -18.484375 24.859375 -27.71875q16.6875 -9.25 36.3125 -9.25q24.78125 0 40.53125 12.53125q15.75 12.53125 20.203125 35.59375l-25.078125 3.875q-3.578125 -15.328125 -12.671875 -23.0625q-9.09375 -7.734375 -21.984375 -7.734375q-19.484375 0 -31.65625 13.96875q-12.171875 13.953125 -12.171875 44.171875q0 30.656265 11.734375 44.54689q11.75 13.890625 30.65625 13.890625q15.1875 0 25.359375 -9.296875q10.171875 -9.3125 12.890625 -28.65625zm47.398438 55.71875l0 -209.96877l25.78125 0l0 75.328125q18.046875 -20.90625 45.546875 -20.90625q16.90625 0 29.359375 6.671875q12.46875 6.65625 17.84375 18.40625q5.375 11.734375 5.375 34.078125l0 96.39064l-25.78125 0l0 -96.39064q0 -19.34375 -8.390625 -28.140625q-8.375 -8.8125 -23.703125 -8.8125q-11.453125 0 -21.5625 5.953125q-10.09375 5.9375 -14.390625 16.109375q-4.296875 10.15625 -4.296875 28.0625l0 83.218765l-25.78125 0zm167.8695 0l0 -209.96877l141.65625 0l0 24.78125l-113.875 0l0 65.015625l98.546875 0l0 24.78125l-98.546875 0l0 95.39064l-27.78125 0zm173.87964 0l0 -209.96877l25.78125 0l0 209.96877l-25.78125 0zm64.589966 58.578125l-2.859375 -24.203125q8.453125 2.296875 14.75 2.296875q8.59375 0 13.75 -2.875q5.15625 -2.859375 8.453125 -8.015625q2.4375 -3.875 7.875 -19.1875q0.71875 -2.15625 2.296875 -6.3125l-57.734375 -152.39064l27.796875 0l31.65625 88.09375q6.15625 16.750015 11.015625 35.23439q4.453125 -17.765625 10.609375 -34.67189l32.515625 -88.65625l25.78125 0l-57.875 154.68752q-9.3125 25.0625 -14.46875 34.515625q-6.875 12.75 -15.75 18.6875q-8.875 5.953125 -21.203125 5.953125q-7.4375 0 -16.609375 -3.15625z" fill-rule="nonzero"/></g></svg>