<svg version="1.1" viewBox="0.0 0.0 676.9448818897638 722.9658792650919" fill="none" stroke="none" stroke-linecap="square" stroke-miterlimit="10" xmlns:xlink="http://www.w3.org/1999/xlink" xmlns="http://www.w3.org/2000/svg"><clipPath id="p.0"><path d="m0 0l676.9449 0l0 722.9659l-676.9449 0l0 -722.9659z" clip-rule="nonzero"/></clipPath><g clip-path="url(#p.0)"><path fill="#000000" fill-opacity="0.0" d="m0 0l676.9449 0l0 722.9659l-676.9449 0z" fill-rule="evenodd"/><g filter="url(#shadowFilter-p.1)"><use xlink:href="#p.1" transform="matrix(1.0 0.0 0.0 1.0 1.0 0.0)"/></g><defs><filter id="shadowFilter-p.1" filterUnits="userSpaceOnUse"><feGaussianBlur in="SourceAlpha" stdDeviation="18.5" result="blur"/><feComponentTransfer in="blur" color-interpolation-filters="sRGB"><feFuncR type="linear" slope="0" intercept="1.0"/><feFuncG type="linear" slope="0" intercept="1.0"/><feFuncB type="linear" slope="0" intercept="0.0"/><feFuncA type="linear" slope="1.0" intercept="0"/></feComponentTransfer></filter></defs><g id="p.1"><path fill="#ffff00" fill-opacity="0.5038" d="m246.26193 578.50525l0 0c0 -49.27301 41.284515 -89.216736 92.21152 -89.216736l0 0c24.456024 0 47.9104 9.399597 65.2034 26.130981c17.29303 16.731384 27.008148 39.42401 27.008148 63.085754l0 0c0 49.27307 -41.284515 89.216736 -92.21155 89.216736l0 0c-50.927002 0 -92.21152 -39.943665 -92.21152 -89.216736z" fill-rule="evenodd"/></g><path fill="#ffff00" fill-opacity="0.85" d="m246.26157 491.51935l0 0c0 -88.12854 41.284485 -159.5708 92.21152 -159.5708l0 0c24.456024 0 47.91037 16.81186 65.2034 46.737213c17.29303 29.925323 27.008118 70.51276 27.008118 112.83359l0 0c0 88.12848 -41.284485 159.5708 -92.21152 159.5708l0 0c-50.927032 0 -92.21152 -71.44232 -92.21152 -159.5708z" fill-rule="evenodd"/><path fill="#faff94" d="m261.1666 450.28497l0 0c0 -88.12851 34.609894 -159.5708 77.303345 -159.5708l0 0c20.502136 0 40.16455 16.81189 54.661743 46.737213c14.497192 29.925323 22.641632 70.51279 22.641632 112.83359l0 0c0 88.12854 -34.609894 159.5708 -77.303375 159.5708l0 0c-42.69345 0 -77.303345 -71.44226 -77.303345 -159.5708z" fill-rule="evenodd"/><path fill="#783f04" d="m265.68317 338.29962l145.57983 0l0 0c19.07135 0 34.53174 35.108643 34.53174 78.41736c0 43.308746 -15.460388 78.41739 -34.53174 78.41739l-145.57983 0l0 0c-19.071335 0 -34.531723 -35.108643 -34.531723 -78.41739c0 -43.308716 15.460388 -78.41736 34.531723 -78.41736z" fill-rule="evenodd"/><path fill="#000000" fill-opacity="0.0" d="m262.7616 22.09779l0 0c15.909637 -11.549377 34.102173 -8.551447 48.467407 7.9868927c14.365204 16.538342 22.997437 44.423153 22.997437 74.288925l-51.535553 0z" fill-rule="evenodd"/><path fill="#000000" fill-opacity="0.0" d="m262.7616 22.09779l0 0c15.909637 -11.549377 34.102173 -8.551447 48.467407 7.9868927c14.365204 16.538342 22.997437 44.423153 22.997437 74.288925" fill-rule="evenodd"/><path stroke="#434343" stroke-width="3.0" stroke-linejoin="round" stroke-linecap="butt" d="m262.7616 22.09779l0 0c15.909637 -11.549377 34.102173 -8.551447 48.467407 7.9868927c14.365204 16.538342 22.997437 44.423153 22.997437 74.288925" fill-rule="evenodd"/><path fill="#440000" d="m248.8201 263.0235l179.30576 0l0 0c23.489563 0 42.531586 35.108643 42.531586 78.41736c0 43.308716 -19.042023 78.41739 -42.531586 78.41739l-179.30576 0l0 0c-23.489548 0 -42.531586 -35.108673 -42.531586 -78.41739c0 -43.308716 19.042038 -78.41736 42.531586 -78.41736z" fill-rule="evenodd"/><path fill="#434343" d="m160.28673 385.80496l0 0c56.55635 -139.95335 136.67302 -239.56734 178.9456 -222.49408l0 0c20.300018 8.198868 28.979584 42.760178 24.129333 96.08087c-4.8502502 53.32068 -22.833069 121.03296 -49.99237 188.24094l0 0c-56.556366 139.95331 -136.67303 239.56732 -178.94562 222.49408l0 0c-20.30001 -8.198914 -28.979591 -42.760193 -24.129326 -96.08087c4.850258 -53.32068 22.833061 -121.03299 49.99238 -188.24094z" fill-rule="evenodd"/><path fill="#434343" d="m516.6578 392.5728l0 0c-56.556366 -139.95334 -136.67303 -239.56732 -178.94562 -222.49408l0 0c-20.300018 8.198868 -28.979614 42.760193 -24.129333 96.08087c4.8502502 53.32068 22.833038 121.03296 49.99237 188.24094l0 0c56.556335 139.95334 136.67303 239.56735 178.94562 222.49405l0 0c20.299988 -8.198853 28.979614 -42.760193 24.129333 -96.08087c-4.850281 -53.32068 -22.833069 -121.03293 -49.99237 -188.2409z" fill-rule="evenodd"/><path fill="#434343" d="m246.26193 180.57858l0 0c0 -49.27304 41.284515 -89.216736 92.21152 -89.216736l0 0c24.456024 0 47.9104 9.39959 65.2034 26.130974c17.29303 16.731392 27.008148 39.42402 27.008148 63.085762l0 0c0 49.273056 -41.284515 89.216736 -92.21155 89.216736l0 0c-50.927002 0 -92.21152 -39.94368 -92.21152 -89.216736z" fill-rule="evenodd"/><path fill="#000000" fill-opacity="0.0" d="m414.18533 22.09779l0 0c-15.909637 -11.549377 -34.102203 -8.551447 -48.467407 7.9868927c-14.365234 16.538342 -22.997467 44.423153 -22.997467 74.288925l51.535583 0z" fill-rule="evenodd"/><path fill="#000000" fill-opacity="0.0" d="m414.18533 22.09779l0 0c-15.909637 -11.549377 -34.102203 -8.551447 -48.467407 7.9868927c-14.365234 16.538342 -22.997467 44.423153 -22.997467 74.288925" fill-rule="evenodd"/><path stroke="#434343" stroke-width="3.0" stroke-linejoin="round" stroke-linecap="butt" d="m414.18533 22.09779l0 0c-15.909637 -11.549377 -34.102203 -8.551447 -48.467407 7.9868927c-14.365234 16.538342 -22.997467 44.423153 -22.997467 74.288925" fill-rule="evenodd"/></g></svg>